# Tiled2Unity generated file. Do not modify by hand.
# Wavefront file for 'LevelOne_mesh_0004.obj'

# Vertices (Count = 64)
v -46 -52 0
v -47 -52 0
v -47 -51 0
v -46 -51 0
v -47 -52 0
v -48 -52 0
v -48 -51 0
v -47 -51 0
v -48 -52 0
v -49 -52 0
v -49 -51 0
v -48 -51 0
v -49 -52 0
v -50 -52 0
v -50 -51 0
v -49 -51 0
v -52 -52 0
v -53 -52 0
v -53 -51 0
v -52 -51 0
v -53 -52 0
v -54 -52 0
v -54 -51 0
v -53 -51 0
v -54 -52 0
v -55 -52 0
v -55 -51 0
v -54 -51 0
v -55 -52 0
v -56 -52 0
v -56 -51 0
v -55 -51 0
v -46 -53 0
v -47 -53 0
v -47 -52 0
v -46 -52 0
v -47 -53 0
v -48 -53 0
v -48 -52 0
v -47 -52 0
v -48 -53 0
v -49 -53 0
v -49 -52 0
v -48 -52 0
v -49 -53 0
v -50 -53 0
v -50 -52 0
v -49 -52 0
v -52 -53 0
v -53 -53 0
v -53 -52 0
v -52 -52 0
v -53 -53 0
v -54 -53 0
v -54 -52 0
v -53 -52 0
v -54 -53 0
v -55 -53 0
v -55 -52 0
v -54 -52 0
v -55 -53 0
v -56 -53 0
v -56 -52 0
v -55 -52 0

# Texture cooridinates (Count = 12)
vt 0 0.5
vt 0.1666667 0.5
vt 0.1666667 0.6666666
vt 0 0.6666666
vt 0.3333333 0.5
vt 0.3333333 0.6666666
vt 0.5 0.5
vt 0.5 0.6666666
vt 0 0.3333333
vt 0.1666667 0.3333333
vt 0.3333333 0.3333333
vt 0.5 0.3333333

# Normal
vn 0 0 -1

# Mesh description
g LevelOne_mesh_0004

# Faces
f 1/1/1 2/2/1 3/3/1 4/4/1
f 5/1/1 6/2/1 7/3/1 8/4/1
f 9/1/1 10/2/1 11/3/1 12/4/1
f 13/2/1 14/5/1 15/6/1 16/3/1
f 17/1/1 18/2/1 19/3/1 20/4/1
f 21/5/1 22/7/1 23/8/1 24/6/1
f 25/1/1 26/2/1 27/3/1 28/4/1
f 29/2/1 30/5/1 31/6/1 32/3/1
f 33/9/1 34/10/1 35/2/1 36/1/1
f 37/9/1 38/10/1 39/2/1 40/1/1
f 41/9/1 42/10/1 43/2/1 44/1/1
f 45/10/1 46/11/1 47/5/1 48/2/1
f 49/9/1 50/10/1 51/2/1 52/1/1
f 53/11/1 54/12/1 55/7/1 56/5/1
f 57/9/1 58/10/1 59/2/1 60/1/1
f 61/10/1 62/11/1 63/5/1 64/2/1

