# Tiled2Unity generated file. Do not modify by hand.
# Wavefront file for 'LevelOne_mesh_0003.obj'

# Vertices (Count = 128)
v -46 -52 0
v -47 -52 0
v -47 -51 0
v -46 -51 0
v -47 -52 0
v -48 -52 0
v -48 -51 0
v -47 -51 0
v -48 -52 0
v -49 -52 0
v -49 -51 0
v -48 -51 0
v -49 -52 0
v -50 -52 0
v -50 -51 0
v -49 -51 0
v -50 -52 0
v -51 -52 0
v -51 -51 0
v -50 -51 0
v -51 -52 0
v -52 -52 0
v -52 -51 0
v -51 -51 0
v -52 -52 0
v -53 -52 0
v -53 -51 0
v -52 -51 0
v -53 -52 0
v -54 -52 0
v -54 -51 0
v -53 -51 0
v -54 -52 0
v -55 -52 0
v -55 -51 0
v -54 -51 0
v -55 -52 0
v -56 -52 0
v -56 -51 0
v -55 -51 0
v -50 -53 0
v -51 -53 0
v -51 -52 0
v -50 -52 0
v -51 -53 0
v -52 -53 0
v -52 -52 0
v -51 -52 0
v -46 -57 0
v -47 -57 0
v -47 -56 0
v -46 -56 0
v -47 -57 0
v -48 -57 0
v -48 -56 0
v -47 -56 0
v -48 -57 0
v -49 -57 0
v -49 -56 0
v -48 -56 0
v -49 -57 0
v -50 -57 0
v -50 -56 0
v -49 -56 0
v -50 -57 0
v -51 -57 0
v -51 -56 0
v -50 -56 0
v -51 -57 0
v -52 -57 0
v -52 -56 0
v -51 -56 0
v -52 -57 0
v -53 -57 0
v -53 -56 0
v -52 -56 0
v -53 -57 0
v -54 -57 0
v -54 -56 0
v -53 -56 0
v -54 -57 0
v -55 -57 0
v -55 -56 0
v -54 -56 0
v -55 -57 0
v -56 -57 0
v -56 -56 0
v -55 -56 0
v -46 -58 0
v -47 -58 0
v -47 -57 0
v -46 -57 0
v -47 -58 0
v -48 -58 0
v -48 -57 0
v -47 -57 0
v -48 -58 0
v -49 -58 0
v -49 -57 0
v -48 -57 0
v -49 -58 0
v -50 -58 0
v -50 -57 0
v -49 -57 0
v -50 -58 0
v -51 -58 0
v -51 -57 0
v -50 -57 0
v -51 -58 0
v -52 -58 0
v -52 -57 0
v -51 -57 0
v -52 -58 0
v -53 -58 0
v -53 -57 0
v -52 -57 0
v -53 -58 0
v -54 -58 0
v -54 -57 0
v -53 -57 0
v -54 -58 0
v -55 -58 0
v -55 -57 0
v -54 -57 0
v -55 -58 0
v -56 -58 0
v -56 -57 0
v -55 -57 0

# Texture cooridinates (Count = 6)
vt 0.6666667 0.6666666
vt 0.8333333 0.6666666
vt 0.8333333 0.8333333
vt 0.6666667 0.8333333
vt 0.6666667 0.5
vt 0.8333333 0.5

# Normal
vn 0 0 -1

# Mesh description
g LevelOne_mesh_0003

# Faces
f 1/1/1 2/2/1 3/3/1 4/4/1
f 5/1/1 6/2/1 7/3/1 8/4/1
f 9/1/1 10/2/1 11/3/1 12/4/1
f 13/1/1 14/2/1 15/3/1 16/4/1
f 17/1/1 18/2/1 19/3/1 20/4/1
f 21/1/1 22/2/1 23/3/1 24/4/1
f 25/1/1 26/2/1 27/3/1 28/4/1
f 29/1/1 30/2/1 31/3/1 32/4/1
f 33/1/1 34/2/1 35/3/1 36/4/1
f 37/1/1 38/2/1 39/3/1 40/4/1
f 41/5/1 42/6/1 43/2/1 44/1/1
f 45/5/1 46/6/1 47/2/1 48/1/1
f 49/1/1 50/2/1 51/3/1 52/4/1
f 53/1/1 54/2/1 55/3/1 56/4/1
f 57/1/1 58/2/1 59/3/1 60/4/1
f 61/1/1 62/2/1 63/3/1 64/4/1
f 65/1/1 66/2/1 67/3/1 68/4/1
f 69/1/1 70/2/1 71/3/1 72/4/1
f 73/1/1 74/2/1 75/3/1 76/4/1
f 77/1/1 78/2/1 79/3/1 80/4/1
f 81/1/1 82/2/1 83/3/1 84/4/1
f 85/1/1 86/2/1 87/3/1 88/4/1
f 89/5/1 90/6/1 91/2/1 92/1/1
f 93/5/1 94/6/1 95/2/1 96/1/1
f 97/5/1 98/6/1 99/2/1 100/1/1
f 101/5/1 102/6/1 103/2/1 104/1/1
f 105/5/1 106/6/1 107/2/1 108/1/1
f 109/5/1 110/6/1 111/2/1 112/1/1
f 113/5/1 114/6/1 115/2/1 116/1/1
f 117/5/1 118/6/1 119/2/1 120/1/1
f 121/5/1 122/6/1 123/2/1 124/1/1
f 125/5/1 126/6/1 127/2/1 128/1/1

