# Tiled2Unity generated file. Do not modify by hand.
# Wavefront file for 'testing_mesh_0004.obj'

# Vertices (Count = 56)
v -57 -50 0
v -58 -50 0
v -58 -49 0
v -57 -49 0
v -58 -50 0
v -59 -50 0
v -59 -49 0
v -58 -49 0
v -57 -51 0
v -58 -51 0
v -58 -50 0
v -57 -50 0
v -58 -51 0
v -59 -51 0
v -59 -50 0
v -58 -50 0
v -57 -52 0
v -58 -52 0
v -58 -51 0
v -57 -51 0
v -58 -52 0
v -59 -52 0
v -59 -51 0
v -58 -51 0
v -55 -53 0
v -56 -53 0
v -56 -52 0
v -55 -52 0
v -56 -53 0
v -57 -53 0
v -57 -52 0
v -56 -52 0
v -59 -53 0
v -60 -53 0
v -60 -52 0
v -59 -52 0
v -60 -53 0
v -61 -53 0
v -61 -52 0
v -60 -52 0
v -55 -54 0
v -56 -54 0
v -56 -53 0
v -55 -53 0
v -56 -54 0
v -57 -54 0
v -57 -53 0
v -56 -53 0
v -59 -54 0
v -60 -54 0
v -60 -53 0
v -59 -53 0
v -60 -54 0
v -61 -54 0
v -61 -53 0
v -60 -53 0

# Texture cooridinates (Count = 8)
vt 0.8333333 0.2857143
vt 1 0.2857143
vt 1 0.4285714
vt 0.8333333 0.4285714
vt 0.8333333 0.1428571
vt 1 0.1428571
vt 0.8333333 0
vt 1 0

# Normal
vn 0 0 -1

# Mesh description
g testing_mesh_0004

# Faces
f 1/1/1 2/2/1 3/3/1 4/4/1
f 5/1/1 6/2/1 7/3/1 8/4/1
f 9/5/1 10/6/1 11/2/1 12/1/1
f 13/5/1 14/6/1 15/2/1 16/1/1
f 17/7/1 18/8/1 19/6/1 20/5/1
f 21/7/1 22/8/1 23/6/1 24/5/1
f 25/5/1 26/6/1 27/2/1 28/1/1
f 29/5/1 30/6/1 31/2/1 32/1/1
f 33/5/1 34/6/1 35/2/1 36/1/1
f 37/5/1 38/6/1 39/2/1 40/1/1
f 41/7/1 42/8/1 43/6/1 44/5/1
f 45/7/1 46/8/1 47/6/1 48/5/1
f 49/7/1 50/8/1 51/6/1 52/5/1
f 53/7/1 54/8/1 55/6/1 56/5/1

