# Tiled2Unity generated file. Do not modify by hand.
# Wavefront file for 'testing_mesh_0002.obj'

# Vertices (Count = 192)
v -57 -50 0
v -58 -50 0
v -58 -49 0
v -57 -49 0
v -58 -50 0
v -59 -50 0
v -59 -49 0
v -58 -49 0
v -57 -51 0
v -58 -51 0
v -58 -50 0
v -57 -50 0
v -58 -51 0
v -59 -51 0
v -59 -50 0
v -58 -50 0
v -57 -52 0
v -58 -52 0
v -58 -51 0
v -57 -51 0
v -58 -52 0
v -59 -52 0
v -59 -51 0
v -58 -51 0
v -55 -53 0
v -56 -53 0
v -56 -52 0
v -55 -52 0
v -56 -53 0
v -57 -53 0
v -57 -52 0
v -56 -52 0
v -57 -53 0
v -58 -53 0
v -58 -52 0
v -57 -52 0
v -58 -53 0
v -59 -53 0
v -59 -52 0
v -58 -52 0
v -59 -53 0
v -60 -53 0
v -60 -52 0
v -59 -52 0
v -60 -53 0
v -61 -53 0
v -61 -52 0
v -60 -52 0
v -55 -54 0
v -56 -54 0
v -56 -53 0
v -55 -53 0
v -56 -54 0
v -57 -54 0
v -57 -53 0
v -56 -53 0
v -57 -54 0
v -58 -54 0
v -58 -53 0
v -57 -53 0
v -58 -54 0
v -59 -54 0
v -59 -53 0
v -58 -53 0
v -59 -54 0
v -60 -54 0
v -60 -53 0
v -59 -53 0
v -60 -54 0
v -61 -54 0
v -61 -53 0
v -60 -53 0
v -55 -55 0
v -56 -55 0
v -56 -54 0
v -55 -54 0
v -56 -55 0
v -57 -55 0
v -57 -54 0
v -56 -54 0
v -57 -55 0
v -58 -55 0
v -58 -54 0
v -57 -54 0
v -58 -55 0
v -59 -55 0
v -59 -54 0
v -58 -54 0
v -59 -55 0
v -60 -55 0
v -60 -54 0
v -59 -54 0
v -60 -55 0
v -61 -55 0
v -61 -54 0
v -60 -54 0
v -55 -56 0
v -56 -56 0
v -56 -55 0
v -55 -55 0
v -56 -56 0
v -57 -56 0
v -57 -55 0
v -56 -55 0
v -57 -56 0
v -58 -56 0
v -58 -55 0
v -57 -55 0
v -58 -56 0
v -59 -56 0
v -59 -55 0
v -58 -55 0
v -59 -56 0
v -60 -56 0
v -60 -55 0
v -59 -55 0
v -60 -56 0
v -61 -56 0
v -61 -55 0
v -60 -55 0
v -55 -57 0
v -56 -57 0
v -56 -56 0
v -55 -56 0
v -56 -57 0
v -57 -57 0
v -57 -56 0
v -56 -56 0
v -57 -57 0
v -58 -57 0
v -58 -56 0
v -57 -56 0
v -58 -57 0
v -59 -57 0
v -59 -56 0
v -58 -56 0
v -59 -57 0
v -60 -57 0
v -60 -56 0
v -59 -56 0
v -60 -57 0
v -61 -57 0
v -61 -56 0
v -60 -56 0
v -55 -58 0
v -56 -58 0
v -56 -57 0
v -55 -57 0
v -56 -58 0
v -57 -58 0
v -57 -57 0
v -56 -57 0
v -57 -58 0
v -58 -58 0
v -58 -57 0
v -57 -57 0
v -58 -58 0
v -59 -58 0
v -59 -57 0
v -58 -57 0
v -59 -58 0
v -60 -58 0
v -60 -57 0
v -59 -57 0
v -60 -58 0
v -61 -58 0
v -61 -57 0
v -60 -57 0
v -55 -59 0
v -56 -59 0
v -56 -58 0
v -55 -58 0
v -56 -59 0
v -57 -59 0
v -57 -58 0
v -56 -58 0
v -57 -59 0
v -58 -59 0
v -58 -58 0
v -57 -58 0
v -58 -59 0
v -59 -59 0
v -59 -58 0
v -58 -58 0
v -59 -59 0
v -60 -59 0
v -60 -58 0
v -59 -58 0
v -60 -59 0
v -61 -59 0
v -61 -58 0
v -60 -58 0

# Texture cooridinates (Count = 21)
vt 0 0.8571429
vt 0.1666667 0.8571429
vt 0.1666667 1
vt 0 1
vt 0.3333333 0.8571429
vt 0.3333333 1
vt 0.5 0.8571429
vt 0.5 1
vt 0 0.7142857
vt 0.1666667 0.7142857
vt 0.6666667 0.8571429
vt 0.6666667 1
vt 0.8333333 0.8571429
vt 0.8333333 1
vt 0.6666667 0.5714285
vt 0.8333333 0.5714285
vt 0.8333333 0.7142857
vt 0.6666667 0.7142857
vt 0.6666667 0.4285714
vt 0.8333333 0.4285714
vt 0.3333333 0.7142857

# Normal
vn 0 0 -1

# Mesh description
g testing_mesh_0002

# Faces
f 1/1/1 2/2/1 3/3/1 4/4/1
f 5/1/1 6/2/1 7/3/1 8/4/1
f 9/2/1 10/5/1 11/6/1 12/3/1
f 13/1/1 14/2/1 15/3/1 16/4/1
f 17/1/1 18/2/1 19/3/1 20/4/1
f 21/1/1 22/2/1 23/3/1 24/4/1
f 25/5/1 26/7/1 27/8/1 28/6/1
f 29/1/1 30/2/1 31/3/1 32/4/1
f 33/2/1 34/5/1 35/6/1 36/3/1
f 37/1/1 38/2/1 39/3/1 40/4/1
f 41/1/1 42/2/1 43/3/1 44/4/1
f 45/9/1 46/10/1 47/2/1 48/1/1
f 49/1/1 50/2/1 51/3/1 52/4/1
f 53/1/1 54/2/1 55/3/1 56/4/1
f 57/1/1 58/2/1 59/3/1 60/4/1
f 61/2/1 62/5/1 63/6/1 64/3/1
f 65/7/1 66/11/1 67/12/1 68/8/1
f 69/11/1 70/13/1 71/14/1 72/12/1
f 73/15/1 74/16/1 75/17/1 76/18/1
f 77/2/1 78/5/1 79/6/1 80/3/1
f 81/1/1 82/2/1 83/3/1 84/4/1
f 85/1/1 86/2/1 87/3/1 88/4/1
f 89/5/1 90/7/1 91/8/1 92/6/1
f 93/15/1 94/16/1 95/17/1 96/18/1
f 97/19/1 98/20/1 99/16/1 100/15/1
f 101/15/1 102/16/1 103/17/1 104/18/1
f 105/15/1 106/16/1 107/17/1 108/18/1
f 109/15/1 110/16/1 111/17/1 112/18/1
f 113/15/1 114/16/1 115/17/1 116/18/1
f 117/19/1 118/20/1 119/16/1 120/15/1
f 121/10/1 122/21/1 123/5/1 124/2/1
f 125/1/1 126/2/1 127/3/1 128/4/1
f 129/1/1 130/2/1 131/3/1 132/4/1
f 133/2/1 134/5/1 135/6/1 136/3/1
f 137/1/1 138/2/1 139/3/1 140/4/1
f 141/1/1 142/2/1 143/3/1 144/4/1
f 145/1/1 146/2/1 147/3/1 148/4/1
f 149/1/1 150/2/1 151/3/1 152/4/1
f 153/1/1 154/2/1 155/3/1 156/4/1
f 157/1/1 158/2/1 159/3/1 160/4/1
f 161/1/1 162/2/1 163/3/1 164/4/1
f 165/2/1 166/5/1 167/6/1 168/3/1
f 169/5/1 170/7/1 171/8/1 172/6/1
f 173/2/1 174/5/1 175/6/1 176/3/1
f 177/1/1 178/2/1 179/3/1 180/4/1
f 181/2/1 182/5/1 183/6/1 184/3/1
f 185/1/1 186/2/1 187/3/1 188/4/1
f 189/7/1 190/11/1 191/12/1 192/8/1

